<?xml version="1.0" encoding="UTF-8" standalone="no"?>
<svg
   xmlns:dc="http://purl.org/dc/elements/1.1/"
   xmlns:cc="http://creativecommons.org/ns#"
   xmlns:rdf="http://www.w3.org/1999/02/22-rdf-syntax-ns#"
   xmlns:svg="http://www.w3.org/2000/svg"
   xmlns="http://www.w3.org/2000/svg"
   viewBox="0 0 640 640"
   height="640"
   width="640"
   xml:space="preserve"
   id="svg2"
   version="1.1"><metadata
     id="metadata8"><rdf:RDF><cc:Work
         rdf:about=""><dc:format>image/svg+xml</dc:format><dc:type
           rdf:resource="http://purl.org/dc/dcmitype/StillImage" /></cc:Work></rdf:RDF></metadata><defs
     id="defs6"><clipPath
       id="clipPath20"
       clipPathUnits="userSpaceOnUse"><path
         style="clip-rule:evenodd"
         id="path18"
         d="M 0,1.28125 H 1998.72 V 2000.0013 H 0 Z" /></clipPath><clipPath
       id="clipPath30"
       clipPathUnits="userSpaceOnUse"><path
         style="clip-rule:evenodd"
         id="path28"
         d="m 375.023,1123.88 h 1247.2 v 657.578 h -1247.2 z" /></clipPath><linearGradient
       id="linearGradient38"
       spreadMethod="pad"
       gradientTransform="matrix(0,657.57917,1247.2,0,375.02167,1123.8792)"
       gradientUnits="userSpaceOnUse"
       y2="0"
       x2="1"
       y1="0"
       x1="0"><stop
         id="stop32"
         offset="0"
         style="stop-opacity:1;stop-color:#ff5e57" /><stop
         id="stop34"
         offset="0.62"
         style="stop-opacity:1;stop-color:#ffbd4a" /><stop
         id="stop36"
         offset="1"
         style="stop-opacity:1;stop-color:#ffbd4a" /></linearGradient><clipPath
       id="clipPath48"
       clipPathUnits="userSpaceOnUse"><path
         style="clip-rule:evenodd"
         id="path46"
         d="m 376.859,548.457 h 1243.21 v 623.602 H 376.859 Z" /></clipPath><linearGradient
       id="linearGradient54"
       spreadMethod="pad"
       gradientTransform="matrix(1243.2042,0,0,-623.6,376.86042,1172.0583)"
       gradientUnits="userSpaceOnUse"
       y2="0"
       x2="1"
       y1="0"
       x1="0"><stop
         id="stop50"
         offset="0"
         style="stop-opacity:1;stop-color:#3784de" /><stop
         id="stop52"
         offset="1"
         style="stop-opacity:1;stop-color:#7bd2fd" /></linearGradient><clipPath
       id="clipPath64"
       clipPathUnits="userSpaceOnUse"><path
         style="clip-rule:evenodd"
         id="path62"
         d="m 650.523,859.18 h 839.465 v 312.797 H 650.523 Z" /></clipPath><clipPath
       id="clipPath76"
       clipPathUnits="userSpaceOnUse"><path
         style="clip-rule:evenodd"
         id="path74"
         d="m 374.863,1124.25 h 930.402 v 146.902 H 374.863 Z" /></clipPath><clipPath
       id="clipPath86"
       clipPathUnits="userSpaceOnUse"><path
         style="clip-rule:evenodd"
         id="path84"
         d="m 1084.21,1106.41 h 552.648 v 553.645 H 1084.21 Z" /></clipPath><clipPath
       id="clipPath96"
       clipPathUnits="userSpaceOnUse"><path
         style="clip-rule:evenodd"
         id="path94"
         d="m 359.203,683.609 h 777.5 v 475.695 h -777.5 z" /></clipPath><clipPath
       id="clipPath106"
       clipPathUnits="userSpaceOnUse"><path
         style="clip-rule:evenodd"
         id="path104"
         d="m 1374.08,244.465 h 94.9375 v 18.9844 H 1374.08 Z" /></clipPath><clipPath
       id="clipPath116"
       clipPathUnits="userSpaceOnUse"><path
         style="clip-rule:evenodd"
         id="path114"
         d="m 517.879,244.465 h 94.9375 v 18.9844 H 517.879 Z" /></clipPath><clipPath
       id="clipPath126"
       clipPathUnits="userSpaceOnUse"><path
         style="clip-rule:evenodd"
         id="path124"
         d="M 0,1.28125 H 1998.72 V 2000.0013 H 0 Z" /></clipPath></defs><g
     transform="matrix(1.3333333,0,0,-1.3333333,0,640)"
     id="g10"><g
       transform="scale(0.24)"
       id="g12"><g
         id="g14"><g
           clip-path="url(#clipPath20)"
           id="g16"><path
             id="path22"
             style="fill:#ffffff;fill-opacity:1;fill-rule:nonzero;stroke:none"
             d="M 0,1.28125 H 2002.72 V 2000.0013 H 0 Z" /></g></g><g
         id="g24"><g
           clip-path="url(#clipPath30)"
           id="g26"><path
             id="path40"
             style="fill:url(#linearGradient38);fill-opacity:1;fill-rule:nonzero;stroke:none"
             d="m 998.621,1171.86 c 257.899,0 485.579,-18.95 621.759,-47.98 1.2,15.8 1.82,31.8 1.84,47.98 -0.22,10.05 -0.7,20.1 -1.41,30.14 -0.71,10.03 -1.67,20.04 -2.87,30.03 -1.2,9.99 -2.64,19.95 -4.31,29.86 -1.68,9.92 -3.61,19.8 -5.76,29.62 -2.16,9.83 -4.56,19.6 -7.19,29.31 -2.63,9.71 -5.49,19.35 -8.59,28.92 -3.09,9.57 -6.42,19.06 -9.98,28.47 -3.56,9.42 -7.34,18.74 -11.34,27.97 -4.01,9.22 -8.24,18.35 -12.69,27.37 -4.45,9.02 -9.12,17.93 -13.99,26.73 -4.88,8.8 -9.98,17.47 -15.27,26.02 -5.3,8.56 -10.81,16.98 -16.52,25.26 -5.7,8.28 -11.61,16.43 -17.71,24.43 -6.1,8 -12.39,15.84 -18.88,23.54 -6.48,7.69 -13.14,15.23 -19.98,22.6 -6.85,7.37 -13.87,14.57 -21.07,21.61 -7.19,7.03 -14.55,13.89 -22.07,20.56 -7.53,6.68 -15.21,13.17 -23.05,19.47 -7.84,6.31 -15.83,12.42 -23.97,18.34 -8.14,5.92 -16.41,11.64 -24.82,17.16 -8.41,5.51 -16.96,10.82 -25.62,15.93 -8.68,5.1 -17.46,10 -26.37,14.68 -8.9,4.67 -17.92,9.14 -27.04,13.38 -9.13,4.24 -18.34,8.26 -27.66,12.06 -9.32,3.8 -18.72,7.37 -28.21,10.71 -9.49,3.34 -19.06,6.45 -28.69,9.33 -9.64,2.88 -19.35,5.53 -29.12,7.94 -9.77,2.41 -19.59,4.58 -29.46,6.51 -9.87,1.94 -19.79,3.64 -29.74,5.09 -9.96,1.46 -19.94,2.67 -29.96,3.64 -10.01,0.97 -20.04,1.7 -30.09,2.19 -10.05,0.48 -20.11,0.73 -30.169,0.73 -10.058,0 -20.113,-0.25 -30.164,-0.73 -10.051,-0.49 -20.082,-1.22 -30.094,-2.19 -10.015,-0.97 -20,-2.18 -29.957,-3.64 -9.953,-1.45 -19.867,-3.15 -29.742,-5.09 -9.871,-1.93 -19.691,-4.1 -29.461,-6.51 -9.769,-2.41 -19.473,-5.06 -29.113,-7.94 -9.641,-2.88 -19.203,-5.99 -28.695,-9.33 -9.489,-3.34 -18.891,-6.91 -28.207,-10.71 -9.317,-3.8 -18.54,-7.82 -27.661,-12.06 -9.121,-4.24 -18.136,-8.71 -27.043,-13.38 -8.906,-4.68 -17.695,-9.58 -26.363,-14.68 -8.672,-5.11 -17.211,-10.42 -25.625,-15.93 -8.41,-5.52 -16.687,-11.24 -24.82,-17.16 -8.137,-5.92 -16.125,-12.03 -23.965,-18.34 -7.84,-6.3 -15.523,-12.79 -23.051,-19.47 -7.527,-6.67 -14.887,-13.53 -22.082,-20.56 -7.191,-7.04 -14.211,-14.24 -21.058,-21.61 -6.848,-7.37 -13.508,-14.91 -19.993,-22.6 -6.48,-7.7 -12.769,-15.54 -18.871,-23.54 -6.101,-8 -12.008,-16.15 -17.715,-24.43 -5.707,-8.28 -11.211,-16.7 -16.511,-25.26 -5.301,-8.55 -10.391,-17.22 -15.27,-26.02 -4.883,-8.8 -9.547,-17.71 -13.996,-26.73 -4.449,-9.02 -8.676,-18.15 -12.684,-27.37 -4.007,-9.23 -7.789,-18.55 -11.347,-27.97 -3.555,-9.41 -6.883,-18.9 -9.981,-28.47 -3.097,-9.57 -5.961,-19.21 -8.589,-28.92 -2.633,-9.71 -5.028,-19.48 -7.184,-29.31 -2.16,-9.82 -4.078,-19.7 -5.758,-29.62 -1.68,-9.91 -3.121,-19.87 -4.316,-29.86 -1.2,-9.99 -2.157,-20 -2.871,-30.03 -0.715,-10.04 -1.184,-20.09 -1.411,-30.14 0,-16 0.61,-31.99 1.836,-47.98 136.188,29.03 363.864,47.98 621.762,47.98" /></g></g><g
         id="g42"><g
           clip-path="url(#clipPath48)"
           id="g44"><path
             id="path56"
             style="fill:url(#linearGradient54);fill-opacity:1;fill-rule:nonzero;stroke:none"
             d="m 1617.15,1094.82 c 1.19,9.71 2.19,19.43 2.92,29.26 -136.16,28.95 -363.77,47.98 -621.609,47.98 -257.832,0 -485.449,-18.95 -621.602,-47.98 l 676.691,-3.99 -635.995,-43.98 125.918,-25.19 -151.383,-23.99 c 7.613,-31.926 17.703,-63.059 30.262,-93.387 l 265.949,10.355 -110.168,-22.07 551.007,-9.433 -682.964,-29.704 c 22.172,-42.214 48.82,-81.382 79.949,-117.5 L 807.906,754.957 566.34,722.734 c 14.445,-13.859 29.527,-27.039 45.25,-39.539 L 776.406,673.082 649.484,655.289 c 6.239,-4.211 12.551,-8.312 18.934,-12.297 6.387,-3.984 12.844,-7.851 19.367,-11.601 6.528,-3.75 13.117,-7.383 19.774,-10.895 6.656,-3.512 13.375,-6.902 20.156,-10.168 6.781,-3.269 13.617,-6.414 20.508,-9.433 6.894,-3.024 13.84,-5.918 20.84,-8.688 6.996,-2.769 14.042,-5.41 21.136,-7.926 7.094,-2.515 14.235,-4.898 21.414,-7.156 7.18,-2.254 14.399,-4.379 21.657,-6.375 7.257,-1.996 14.546,-3.855 21.871,-5.586 7.324,-1.73 14.679,-3.328 22.062,-4.793 7.383,-1.465 14.789,-2.797 22.219,-3.992 7.43,-1.195 14.879,-2.258 22.351,-3.184 7.469,-0.925 14.95,-1.715 22.45,-2.371 7.496,-0.656 15.004,-1.176 22.519,-1.558 7.52,-0.383 15.039,-0.629 22.563,-0.743 7.527,-0.109 15.055,-0.085 22.575,0.079 7.53,0.16 15.05,0.457 22.56,0.89 7.51,0.434 15.02,1.004 22.51,1.711 7.49,0.703 14.97,1.543 22.43,2.52 7.47,0.976 14.91,2.09 22.33,3.336 7.42,1.242 14.82,2.625 22.19,4.136 7.38,1.516 14.72,3.16 22.03,4.942 7.32,1.777 14.59,3.691 21.84,5.73 7.24,2.047 14.44,4.219 21.61,6.524 7.17,2.304 14.29,4.734 21.36,7.297 7.08,2.562 14.11,5.25 21.09,8.066 6.98,2.816 13.9,5.758 20.78,8.828 6.87,3.066 13.69,6.258 20.44,9.57 6.76,3.313 13.46,6.75 20.09,10.305 6.63,3.559 13.2,7.231 19.7,11.027 6.5,3.793 12.93,7.704 19.29,11.731 l -225.06,21.348 h 256.48 c 20.48,14.816 40,30.808 58.56,47.976 l -315.04,30.703 368.53,25.426 c 3.51,4.199 6.95,8.395 10.35,12.676 l -441.84,37.5 482.66,19.988 c 4.82,7.731 9.5,15.551 14.03,23.469 l -156.62,25.824 132.23,9.438 -97.62,9.433 113.37,22.149 -510.07,59.968 h 573.07 c 5.92,19.507 10.89,39.417 14.91,59.727 l -197.55,44.18 204.63,-0.2" /></g></g><g
         id="g58"><g
           clip-path="url(#clipPath64)"
           id="g60"><path
             id="path66"
             style="fill:#4392e3;fill-opacity:1;fill-rule:nonzero;stroke:none"
             d="m 998.594,1171.98 c -69.942,0 -137.602,-1.4 -201.867,-4 l 315.273,-21.15 -159.074,-6.26 329.154,-14.17 -374.822,-34.57 286.652,-20.59 -261.457,-15.73 552.777,-18.88 -302.36,58.16 144.88,6.3 -48.83,11.02 211.07,11.02 -171.48,23.7 118.25,4.67 c -123.72,12.89 -274.85,20.48 -438.166,20.48" /><path
             id="path68"
             style="fill:#4392e3;fill-opacity:1;fill-rule:nonzero;stroke:none"
             d="m 839.516,994.363 483.514,-62.863 -474.038,45.582 385.818,-59.75 -83.45,-12.574 198.43,-15.727 -497.677,-29.851 256.737,28.297 h -51.99 l 92.94,29.855 -245.698,28.297 53.543,3.152 -307.122,42.43 168.52,-9.418 -70.863,17.281 91.336,-4.711" /></g></g><g
         id="g70"><g
           clip-path="url(#clipPath76)"
           id="g72"><path
             id="path78"
             style="fill:#0c264c;fill-opacity:1;fill-rule:nonzero;stroke:none"
             d="m 1305.27,1162.64 c -48.7,16.84 -151.39,50.21 -188.69,44.86 -49.61,-7.07 -70.84,-11.77 -113.37,-4.71 -42.538,7.07 -63.964,11.97 -94.468,16.52 -30.5,4.55 -25.984,21.19 -68.476,21.19 -42.496,0 -94.465,-2.35 -94.465,-2.35 l -87.387,-11.77 c 0,0 -11.996,16.48 -30.703,18.87 -18.711,2.4 -30.703,21.2 -56.688,23.55 -25.984,2.35 -39.976,2.35 -51.968,-2.35 -11.992,-4.72 -33.059,-7.07 -47.25,-7.07 -14.192,0 -21.227,7.07 -33.063,7.07 -11.832,0 -14.148,4.7 -30.699,4.7 -5.438,0 -14.992,-0.51 -25.387,-1.19 -5.16,-32.41 -7.758,-65.01 -7.793,-97.82 0,-15.96 0.614,-31.93 1.836,-47.89 136.16,28.89 363.785,47.89 621.629,47.89 109.422,0 213.192,-3.39 306.942,-9.5" /></g></g><g
         id="g80"><g
           clip-path="url(#clipPath86)"
           id="g82"><path
             id="path88"
             style="fill:#0c264c;fill-opacity:1;fill-rule:nonzero;stroke:none"
             d="m 1536.59,1245.64 17.25,17.29 c 0.59,0.61 1.12,1.27 1.59,1.98 0.46,0.71 0.85,1.46 1.17,2.25 0.32,0.79 0.56,1.6 0.71,2.43 0.16,0.84 0.24,1.68 0.24,2.53 -0.01,0.85 -0.1,1.69 -0.26,2.52 -0.18,0.84 -0.42,1.65 -0.75,2.43 -0.33,0.78 -0.73,1.53 -1.2,2.23 -0.47,0.71 -1.01,1.36 -1.61,1.97 -0.6,0.59 -1.25,1.13 -1.95,1.61 -0.71,0.47 -1.45,0.87 -2.24,1.19 -0.78,0.33 -1.59,0.58 -2.41,0.75 -0.84,0.17 -1.68,0.26 -2.52,0.26 -0.85,0.01 -1.7,-0.07 -2.53,-0.23 -0.83,-0.16 -1.64,-0.4 -2.43,-0.71 -0.78,-0.32 -1.53,-0.71 -2.24,-1.18 -0.71,-0.46 -1.37,-0.99 -1.98,-1.58 l -1.44,-1.41 -5.55,73.5 17.26,17.17 c 0.6,0.6 1.14,1.26 1.62,1.98 0.47,0.71 0.88,1.46 1.2,2.26 0.33,0.79 0.58,1.6 0.75,2.45 0.16,0.84 0.25,1.69 0.25,2.55 0,0.85 -0.09,1.71 -0.25,2.55 -0.17,0.84 -0.42,1.66 -0.75,2.45 -0.33,0.79 -0.73,1.54 -1.21,2.26 -0.47,0.71 -1.02,1.37 -1.62,1.97 -0.61,0.61 -1.27,1.15 -1.98,1.63 -0.71,0.47 -1.46,0.87 -2.26,1.2 -0.79,0.33 -1.61,0.58 -2.45,0.74 -0.84,0.17 -1.68,0.25 -2.54,0.25 -0.86,0 -1.71,-0.09 -2.55,-0.26 -0.84,-0.17 -1.65,-0.42 -2.44,-0.75 -0.79,-0.33 -1.54,-0.73 -2.26,-1.21 -0.71,-0.48 -1.36,-1.02 -1.97,-1.63 l -1.51,-1.48 -6.43,87.06 c 47.6,44.97 85.34,80.78 93.85,89.34 33.75,33.81 23.13,85.02 17.93,90.22 -5.19,5.21 -56.35,16.01 -90.1,-17.96 -8.5,-8.52 -44.25,-46.33 -89.18,-94.02 l -86.87,6.6 1.52,1.52 c 0.59,0.61 1.12,1.27 1.59,1.98 0.46,0.71 0.85,1.46 1.17,2.25 0.31,0.79 0.55,1.6 0.71,2.43 0.16,0.84 0.24,1.68 0.23,2.53 0,0.85 -0.09,1.69 -0.26,2.52 -0.17,0.84 -0.42,1.64 -0.74,2.43 -0.33,0.78 -0.73,1.53 -1.2,2.23 -0.47,0.71 -1.01,1.36 -1.61,1.96 -0.6,0.6 -1.25,1.14 -1.96,1.61 -0.7,0.48 -1.44,0.88 -2.23,1.2 -0.78,0.33 -1.59,0.58 -2.42,0.75 -0.83,0.17 -1.67,0.26 -2.52,0.26 -0.85,0.01 -1.69,-0.07 -2.52,-0.23 -0.83,-0.16 -1.64,-0.4 -2.43,-0.72 -0.78,-0.31 -1.53,-0.7 -2.24,-1.17 -0.72,-0.46 -1.37,-0.99 -1.98,-1.59 l -17.37,-17.36 -73.37,5.52 1.44,1.44 c 0.62,0.6 1.17,1.26 1.65,1.98 0.49,0.71 0.9,1.46 1.24,2.25 0.33,0.8 0.59,1.62 0.76,2.46 0.18,0.85 0.27,1.7 0.27,2.57 0.01,0.86 -0.07,1.72 -0.23,2.56 -0.17,0.85 -0.41,1.67 -0.74,2.47 -0.33,0.8 -0.73,1.56 -1.21,2.27 -0.48,0.72 -1.02,1.39 -1.63,2 -0.61,0.61 -1.27,1.15 -1.99,1.63 -0.72,0.48 -1.47,0.88 -2.27,1.21 -0.8,0.33 -1.62,0.58 -2.46,0.74 -0.85,0.16 -1.7,0.24 -2.56,0.24 -0.87,-0.01 -1.72,-0.1 -2.56,-0.27 -0.85,-0.18 -1.67,-0.43 -2.46,-0.77 -0.79,-0.34 -1.54,-0.75 -2.25,-1.24 -0.71,-0.48 -1.37,-1.04 -1.97,-1.66 l -17.29,-17.28 -113.39,8.6 -25.44,-25.48 207.12,-60.02 59.38,-48.01 c -53.15,-63.61 -136.74,-160.04 -136.74,-160.04 l -112.39,13.28 -17.13,-17.16 80.99,-49.93 c -8.82,-9.88 -5.71,-18.2 -5.71,-18.2 -15.57,-15.61 -8.82,-29.65 -8.82,-29.65 0,0 14.01,-6.76 29.59,8.84 0,0 8.3,-3.12 18.17,5.72 l 49.8,-81.1 17.14,17.13 -13.22,112.59 c 0,0 95.85,83.73 159.55,136.99 l 47.93,-59.5 59.86,-207.05 25.41,25.49 -8.55,113.58" /></g></g><g
         id="g90"><g
           clip-path="url(#clipPath96)"
           id="g92"><path
             id="path98"
             style="fill:#0c264c;fill-opacity:1;fill-rule:nonzero;stroke:none"
             d="M 912.012,983.23 C 873.125,956.02 833.516,930.051 793.191,905.797 753.246,881.594 712.16,859.516 669.934,839.555 c -20.864,-9.707 -41.926,-18.617 -62.95,-26.328 -20.324,-7.582 -41.093,-13.641 -62.308,-18.18 -9.59,-2.012 -19.274,-3.344 -29.055,-3.996 -8.043,-0.613 -16.035,-0.215 -23.98,1.199 -2.571,0.512 -5.047,1.309 -7.434,2.398 -1.168,0.536 -2.113,1.336 -2.836,2.395 -0.242,0.562 0.32,0.84 0.68,1 0.254,0.031 0.469,0.141 0.644,0.328 0.176,0.192 0.266,0.414 0.274,0.672 0.199,1.238 0,5.512 0.441,11.707 0.238,2.434 0.637,5.191 1.156,7.988 -18.476,26.758 -34.753,54.793 -48.828,84.106 -14.074,29.312 -25.773,59.543 -35.101,90.691 -7.434,-18.058 -14.348,-36.597 -20.582,-55.933 -8.977,-27 -15.305,-54.61 -18.985,-82.825 -1.992,-16.234 -2.394,-32.511 -1.199,-48.824 0.754,-9.449 2.289,-18.773 4.598,-27.969 2.523,-10.425 6.254,-20.398 11.187,-29.921 2.699,-5.293 5.789,-10.352 9.262,-15.168 3.477,-4.821 7.297,-9.344 11.469,-13.579 4.168,-4.23 8.636,-8.121 13.402,-11.668 4.766,-3.546 9.777,-6.71 15.027,-9.488 9.629,-4.98 19.727,-8.668 30.297,-11.07 9.219,-2.004 18.543,-3.152 27.977,-3.434 16.055,-0.336 31.937,1.184 47.64,4.555 13.86,2.93 27.465,6.777 40.805,11.547 24.684,8.898 48.582,19.551 71.699,31.961 22.504,11.988 43.965,24.851 64.829,38.316 41.128,26.848 80.746,55.762 118.859,86.738 37.848,30.567 74.301,62.411 109.711,95.25 C 1006.94,1017.63 1073.63,1086.72 1136.7,1159.3 1064.88,1096.69 989.984,1038 912.012,983.23" /></g></g><g
         id="g100"><g
           clip-path="url(#clipPath106)"
           id="g102"><path
             id="path108"
             style="fill:#0c264c;fill-opacity:1;fill-rule:nonzero;stroke:none"
             d="m 1392.54,253.957 c 0,-0.625 -0.06,-1.242 -0.18,-1.855 -0.11,-0.61 -0.29,-1.204 -0.52,-1.782 -0.23,-0.574 -0.52,-1.125 -0.86,-1.64 -0.34,-0.52 -0.72,-1 -1.15,-1.442 -0.43,-0.441 -0.89,-0.832 -1.4,-1.179 -0.5,-0.348 -1.04,-0.637 -1.6,-0.875 -0.56,-0.239 -1.13,-0.418 -1.73,-0.539 -0.6,-0.122 -1.2,-0.184 -1.8,-0.18 -0.61,0 -1.21,0.062 -1.81,0.183 -0.59,0.125 -1.17,0.305 -1.73,0.543 -0.56,0.243 -1.09,0.536 -1.6,0.883 -0.5,0.348 -0.96,0.742 -1.39,1.184 -0.43,0.441 -0.81,0.922 -1.15,1.441 -0.33,0.52 -0.62,1.071 -0.85,1.649 -0.23,0.574 -0.4,1.172 -0.52,1.781 -0.12,0.613 -0.17,1.23 -0.17,1.855 0,0.625 0.06,1.243 0.18,1.852 0.12,0.613 0.3,1.207 0.53,1.781 0.24,0.578 0.52,1.125 0.86,1.641 0.34,0.519 0.73,0.996 1.15,1.437 0.43,0.438 0.9,0.832 1.41,1.176 0.5,0.344 1.04,0.637 1.6,0.871 0.56,0.238 1.14,0.414 1.74,0.535 0.59,0.118 1.19,0.176 1.8,0.172 0.61,0.004 1.2,-0.054 1.8,-0.176 0.6,-0.117 1.17,-0.296 1.73,-0.535 0.56,-0.238 1.09,-0.531 1.6,-0.875 0.5,-0.347 0.97,-0.742 1.4,-1.183 0.42,-0.442 0.8,-0.922 1.14,-1.442 0.33,-0.519 0.61,-1.066 0.84,-1.644 0.23,-0.578 0.41,-1.172 0.52,-1.785 0.11,-0.61 0.17,-1.227 0.16,-1.852 z m 29.05,9.492 c -0.61,0.004 -1.21,-0.054 -1.8,-0.172 -0.6,-0.121 -1.18,-0.297 -1.74,-0.535 -0.56,-0.234 -1.1,-0.527 -1.6,-0.871 -0.51,-0.344 -0.98,-0.738 -1.41,-1.176 -0.43,-0.441 -0.81,-0.918 -1.15,-1.437 -0.34,-0.516 -0.62,-1.063 -0.86,-1.641 -0.23,-0.574 -0.41,-1.168 -0.53,-1.781 -0.12,-0.609 -0.18,-1.227 -0.18,-1.852 0,-0.625 0.05,-1.242 0.17,-1.855 0.12,-0.609 0.29,-1.207 0.52,-1.781 0.23,-0.578 0.51,-1.125 0.85,-1.649 0.34,-0.519 0.72,-1 1.15,-1.441 0.42,-0.442 0.89,-0.836 1.39,-1.184 0.51,-0.347 1.04,-0.64 1.6,-0.883 0.56,-0.238 1.14,-0.421 1.73,-0.543 0.6,-0.121 1.2,-0.183 1.81,-0.183 0.6,-0.004 1.2,0.058 1.8,0.18 0.59,0.121 1.17,0.3 1.73,0.539 0.56,0.238 1.09,0.527 1.6,0.875 0.51,0.347 0.97,0.738 1.4,1.179 0.43,0.442 0.81,0.922 1.15,1.442 0.34,0.515 0.62,1.066 0.85,1.64 0.24,0.578 0.41,1.172 0.53,1.782 0.12,0.613 0.18,1.23 0.18,1.855 0,0.621 -0.06,1.238 -0.18,1.848 -0.12,0.609 -0.29,1.203 -0.52,1.777 -0.23,0.574 -0.51,1.121 -0.85,1.637 -0.33,0.515 -0.71,0.996 -1.14,1.437 -0.43,0.442 -0.89,0.832 -1.39,1.18 -0.5,0.348 -1.04,0.641 -1.59,0.879 -0.56,0.242 -1.13,0.422 -1.73,0.547 -0.59,0.125 -1.19,0.187 -1.79,0.187 z m 38.23,0 c -0.6,0.004 -1.2,-0.054 -1.8,-0.172 -0.59,-0.121 -1.17,-0.297 -1.73,-0.535 -0.56,-0.234 -1.1,-0.527 -1.6,-0.871 -0.51,-0.344 -0.98,-0.738 -1.41,-1.176 -0.43,-0.441 -0.82,-0.918 -1.15,-1.437 -0.34,-0.516 -0.63,-1.063 -0.86,-1.641 -0.23,-0.574 -0.41,-1.168 -0.53,-1.781 -0.12,-0.609 -0.19,-1.227 -0.19,-1.852 0,-0.625 0.06,-1.242 0.18,-1.855 0.11,-0.609 0.29,-1.207 0.52,-1.781 0.23,-0.578 0.51,-1.129 0.85,-1.649 0.33,-0.519 0.72,-1 1.15,-1.441 0.42,-0.442 0.89,-0.836 1.39,-1.184 0.5,-0.347 1.04,-0.64 1.6,-0.883 0.56,-0.238 1.14,-0.421 1.73,-0.543 0.6,-0.121 1.2,-0.183 1.8,-0.183 0.61,-0.004 1.21,0.058 1.8,0.18 0.6,0.121 1.18,0.3 1.74,0.539 0.56,0.238 1.09,0.527 1.6,0.875 0.5,0.347 0.97,0.738 1.4,1.179 0.43,0.442 0.81,0.922 1.15,1.442 0.34,0.515 0.62,1.066 0.85,1.64 0.24,0.578 0.41,1.172 0.53,1.782 0.12,0.613 0.18,1.23 0.18,1.855 0,0.621 -0.06,1.238 -0.18,1.848 -0.12,0.609 -0.29,1.203 -0.52,1.777 -0.23,0.574 -0.52,1.121 -0.85,1.637 -0.33,0.515 -0.72,0.996 -1.14,1.437 -0.43,0.442 -0.89,0.832 -1.4,1.18 -0.5,0.348 -1.03,0.641 -1.58,0.879 -0.56,0.242 -1.14,0.422 -1.73,0.547 -0.59,0.125 -1.19,0.187 -1.8,0.187 v 0" /></g></g><g
         id="g110"><g
           clip-path="url(#clipPath116)"
           id="g112"><path
             id="path118"
             style="fill:#0c264c;fill-opacity:1;fill-rule:nonzero;stroke:none"
             d="m 536.34,253.957 c 0,-0.625 -0.059,-1.242 -0.176,-1.852 -0.117,-0.613 -0.293,-1.207 -0.527,-1.781 -0.231,-0.578 -0.516,-1.125 -0.852,-1.64 -0.336,-0.52 -0.719,-1 -1.148,-1.442 -0.43,-0.437 -0.895,-0.832 -1.399,-1.179 -0.504,-0.344 -1.035,-0.637 -1.597,-0.875 -0.559,-0.239 -1.137,-0.422 -1.731,-0.543 -0.594,-0.122 -1.195,-0.18 -1.801,-0.18 -0.605,0 -1.207,0.058 -1.8,0.18 -0.594,0.121 -1.172,0.304 -1.731,0.543 -0.562,0.238 -1.094,0.531 -1.598,0.875 -0.503,0.347 -0.968,0.742 -1.398,1.179 -0.43,0.442 -0.812,0.922 -1.148,1.442 -0.336,0.515 -0.621,1.062 -0.852,1.64 -0.234,0.574 -0.41,1.168 -0.527,1.781 -0.117,0.61 -0.176,1.227 -0.176,1.852 0,0.625 0.059,1.242 0.176,1.852 0.117,0.613 0.293,1.207 0.527,1.781 0.231,0.574 0.516,1.125 0.852,1.64 0.336,0.52 0.718,1 1.148,1.442 0.43,0.437 0.895,0.832 1.398,1.18 0.504,0.343 1.036,0.636 1.598,0.875 0.559,0.242 1.137,0.421 1.731,0.543 0.593,0.121 1.195,0.179 1.8,0.179 0.606,0.004 1.207,-0.054 1.805,-0.176 0.594,-0.117 1.172,-0.296 1.734,-0.535 0.563,-0.238 1.094,-0.527 1.598,-0.875 0.508,-0.347 0.973,-0.738 1.402,-1.179 0.43,-0.442 0.813,-0.922 1.149,-1.442 0.336,-0.519 0.621,-1.07 0.851,-1.644 0.231,-0.578 0.407,-1.172 0.524,-1.785 0.113,-0.614 0.172,-1.231 0.168,-1.856 z m 29.008,9.492 c -0.606,0 -1.207,-0.058 -1.801,-0.179 -0.594,-0.122 -1.172,-0.301 -1.731,-0.543 -0.562,-0.239 -1.093,-0.532 -1.597,-0.875 -0.504,-0.348 -0.969,-0.743 -1.399,-1.18 -0.429,-0.442 -0.812,-0.922 -1.148,-1.442 -0.336,-0.515 -0.621,-1.062 -0.852,-1.64 -0.234,-0.574 -0.41,-1.168 -0.527,-1.781 -0.117,-0.61 -0.176,-1.227 -0.176,-1.852 0,-0.625 0.059,-1.242 0.176,-1.852 0.117,-0.613 0.293,-1.207 0.527,-1.781 0.231,-0.578 0.516,-1.125 0.852,-1.64 0.336,-0.52 0.719,-1 1.148,-1.442 0.43,-0.437 0.895,-0.832 1.399,-1.179 0.504,-0.344 1.035,-0.637 1.597,-0.875 0.559,-0.239 1.137,-0.422 1.731,-0.543 0.594,-0.122 1.195,-0.18 1.801,-0.18 0.605,0 1.207,0.058 1.8,0.18 0.594,0.121 1.172,0.304 1.731,0.543 0.562,0.238 1.094,0.531 1.598,0.875 0.503,0.347 0.968,0.742 1.398,1.179 0.43,0.442 0.813,0.922 1.148,1.442 0.336,0.515 0.622,1.062 0.852,1.64 0.234,0.574 0.41,1.168 0.527,1.781 0.118,0.61 0.176,1.227 0.176,1.852 0.004,0.625 -0.055,1.242 -0.168,1.856 -0.117,0.613 -0.293,1.207 -0.523,1.785 -0.231,0.574 -0.516,1.125 -0.852,1.644 -0.336,0.52 -0.719,1 -1.148,1.442 -0.43,0.441 -0.895,0.832 -1.403,1.179 -0.504,0.348 -1.035,0.637 -1.597,0.875 -0.563,0.239 -1.141,0.418 -1.735,0.535 -0.597,0.122 -1.199,0.18 -1.804,0.176 z m 38.238,0 c -0.606,0 -1.207,-0.058 -1.801,-0.179 -0.594,-0.122 -1.172,-0.301 -1.73,-0.543 -0.563,-0.239 -1.094,-0.528 -1.598,-0.875 -0.504,-0.348 -0.969,-0.743 -1.398,-1.18 -0.43,-0.442 -0.813,-0.922 -1.149,-1.442 -0.336,-0.515 -0.621,-1.062 -0.851,-1.64 -0.235,-0.574 -0.411,-1.168 -0.528,-1.781 -0.117,-0.61 -0.176,-1.227 -0.176,-1.852 0,-0.625 0.059,-1.242 0.176,-1.852 0.117,-0.613 0.293,-1.207 0.528,-1.781 0.23,-0.578 0.515,-1.125 0.851,-1.64 0.336,-0.52 0.719,-1 1.149,-1.442 0.429,-0.437 0.894,-0.832 1.398,-1.179 0.504,-0.344 1.035,-0.637 1.598,-0.875 0.558,-0.239 1.136,-0.422 1.73,-0.543 0.594,-0.122 1.195,-0.18 1.801,-0.18 0.605,0 1.207,0.058 1.801,0.18 0.593,0.121 1.172,0.304 1.73,0.543 0.563,0.238 1.094,0.531 1.598,0.875 0.504,0.347 0.969,0.742 1.398,1.179 0.43,0.442 0.813,0.922 1.149,1.442 0.336,0.515 0.621,1.066 0.851,1.64 0.235,0.574 0.41,1.168 0.528,1.781 0.117,0.61 0.175,1.227 0.175,1.852 0,0.625 -0.058,1.242 -0.175,1.852 -0.118,0.613 -0.293,1.207 -0.528,1.781 -0.23,0.578 -0.515,1.125 -0.851,1.64 -0.336,0.52 -0.719,1 -1.149,1.442 -0.429,0.437 -0.894,0.832 -1.398,1.18 -0.504,0.347 -1.035,0.636 -1.598,0.875 -0.558,0.242 -1.137,0.421 -1.73,0.543 -0.594,0.121 -1.196,0.179 -1.801,0.179 v 0" /></g></g><g
         id="g120"><g
           clip-path="url(#clipPath126)"
           id="g122"><g
             transform="scale(4.16667)"
             id="g128"><text
               id="text132"
               style="font-variant:normal;font-weight:bold;font-size:22.99219131px;font-family:Montserrat;-inkscape-font-specification:Montserrat-Bold;writing-mode:lr-tb;fill:#0c264c;fill-opacity:1;fill-rule:nonzero;stroke:none"
               transform="matrix(0.970142,0,-0.242536,-0.970142,91.6322,96.3159)"><tspan
                 id="tspan130"
                 y="0"
                 x="0 17.612019 31.499302 43.593193 61.205212 67.712006 81.691254 101.09666 119.21451 136.11377 142.62056 160.23257 178.81027 197.80182 204.30861 218.51778 235.41704 252.15524 268.96204 284.3898 298.18542">ALJA TOUR AND TRAVELS</tspan></text>
</g><g
             transform="scale(4.16667)"
             id="g134"><text
               id="text138"
               style="font-variant:normal;font-weight:600;font-size:10.07359982px;font-family:Montserrat;-inkscape-font-specification:Montserrat-SemiBold;writing-mode:lr-tb;fill:#183aaf;fill-opacity:1;fill-rule:nonzero;stroke:none"
               transform="matrix(1,0,0,-1,151.099,58.5581)"><tspan
                 id="tspan136"
                 y="0"
                 x="0 7.8328524 10.901302 18.361025 27.131382 37.038925 44.539906 50.8615 57.898403 64.250938 71.287842 74.356293 80.708824 88.359795 95.820457 103.30081 110.33773 116.65934 119.72779 126.35219 135.1216 141.3429 149.44762 155.80014 159.30173 168.07114">A COMPLETE TRAVEL SOLUTION</tspan></text>
</g></g></g></g></g></svg>