<?xml version="1.0" standalone="no"?>
<!DOCTYPE svg PUBLIC "-//W3C//DTD SVG 20010904//EN"
 "http://www.w3.org/TR/2001/REC-SVG-20010904/DTD/svg10.dtd">
<svg version="1.0" xmlns="http://www.w3.org/2000/svg"
 width="2000.000000pt" height="2000.000000pt" viewBox="0 0 2000.000000 2000.000000"
 preserveAspectRatio="xMidYMid meet">

<g transform="translate(0.000000,2000.000000) scale(0.100000,-0.100000)"
fill="#000000" stroke="none">
<path d="M15803 16570 c-106 -28 -204 -72 -275 -123 -81 -58 -313 -294 -948
-969 l-55 -58 -425 32 c-234 17 -426 32 -427 33 -2 1 6 19 17 40 25 49 25 91
0 132 -27 45 -73 66 -128 60 -40 -4 -54 -14 -146 -105 l-101 -100 -320 24
c-176 13 -339 26 -363 29 l-42 6 20 30 c52 72 4 192 -81 199 -72 6 -80 2 -188
-104 l-106 -103 -565 44 -564 44 -128 -129 -129 -128 988 -287 c543 -158 1011
-294 1038 -302 40 -12 108 -62 335 -246 157 -127 289 -235 294 -239 11 -10
-69 -106 -720 -865 -572 -667 -615 -716 -635 -728 -11 -7 -190 11 -570 56
l-554 65 -89 -87 -88 -88 128 -80 c71 -44 248 -153 394 -243 146 -90 269 -166
273 -170 4 -4 -3 -29 -17 -55 -15 -26 -26 -64 -26 -83 0 -30 -2 -34 -22 -29
-146 37 -364 40 -558 10 -273 -44 -413 -57 -595 -57 -202 1 -291 11 -670 80
-137 25 -363 65 -501 89 -263 45 -310 59 -424 128 -160 97 -215 107 -602 107
-492 -1 -788 -20 -1244 -82 l-391 -54 -60 56 c-75 70 -144 107 -235 126 -85
18 -155 48 -254 110 -188 116 -269 137 -554 138 -204 1 -205 1 -301 -31 -123
-40 -284 -65 -429 -67 -104 -1 -124 2 -213 32 -53 17 -116 32 -140 32 -23 0
-80 10 -127 22 -73 19 -110 23 -258 22 -109 0 -176 -4 -183 -11 -15 -15 -44
-230 -65 -471 -18 -212 -24 -768 -10 -904 l8 -77 406 -1 c224 -1 430 -3 458
-4 35 -2 51 1 51 10 0 7 -4 12 -8 11 -4 -1 -7 3 -7 8 0 6 3 9 7 8 4 -1 8 4 8
12 0 8 -4 13 -8 12 -4 -1 -7 3 -7 8 0 6 3 9 7 8 4 -1 8 4 8 12 0 8 -4 13 -8
12 -4 -1 -7 3 -7 8 0 6 3 9 7 8 4 -1 8 4 8 11 0 7 -6 13 -13 13 -7 0 -12 -5
-11 -11 1 -6 -3 -10 -9 -9 -5 1 -10 -9 -10 -22 0 -14 4 -21 11 -17 5 3 4 -2
-4 -12 -8 -9 -10 -16 -4 -14 6 2 11 -1 11 -7 0 -5 -4 -9 -8 -8 -5 2 -7 -7 -5
-18 3 -16 1 -18 -9 -10 -7 6 -15 9 -18 6 -2 -3 -5 1 -5 9 0 8 5 14 11 13 5 -1
10 12 10 28 0 17 -5 29 -10 28 -6 -1 -11 4 -11 12 0 8 5 13 11 12 5 -1 10 4
11 12 0 8 9 16 20 17 328 53 976 129 1431 169 925 80 1542 111 2849 145 744
19 2063 9 2860 -21 l320 -13 120 -195 c66 -107 149 -243 185 -303 35 -59 69
-108 75 -108 6 0 47 37 92 83 l81 82 -23 205 c-13 112 -22 206 -20 209 3 2
100 -2 215 -9 116 -7 213 -10 216 -7 3 3 -95 38 -218 77 -123 40 -226 76 -229
79 -10 9 -72 558 -66 575 3 8 39 43 79 78 41 34 162 140 269 233 168 148 967
833 1162 998 38 31 71 57 75 57 4 -1 113 -132 242 -293 l235 -292 247 -855
c136 -470 271 -937 300 -1037 l54 -182 127 127 c120 120 127 129 127 167 0 22
-18 278 -41 569 l-41 528 100 102 c79 80 102 109 107 138 9 48 -18 104 -65
136 -43 29 -109 26 -144 -7 l-23 -22 -6 68 c-3 37 -16 202 -28 366 l-22 297
100 103 c111 113 126 146 99 210 -31 75 -133 105 -196 58 -17 -12 -30 -20 -31
-19 0 2 -15 194 -33 428 l-33 425 36 39 c20 21 120 118 222 215 102 97 301
285 442 419 330 313 390 395 444 601 43 163 34 425 -17 509 -31 51 -89 65
-285 69 -144 2 -181 0 -242 -17z"/>
<path d="M11235 11473 c-140 -123 -433 -367 -601 -503 -310 -249 -377 -302
-479 -380 -1296 -991 -2244 -1604 -3230 -2090 -507 -250 -903 -406 -1277 -504
-250 -66 -482 -99 -633 -91 -72 4 -181 29 -189 44 -3 7 10 160 18 202 4 21
-13 54 -79 155 -60 91 -83 135 -80 151 2 13 0 21 -6 18 -5 -4 -7 -11 -4 -16 4
-5 4 -9 2 -9 -6 0 -90 141 -167 279 -59 105 -214 422 -255 521 -15 36 -29 71
-32 79 -4 8 -2 12 3 8 5 -3 93 -1 194 4 102 6 199 11 217 12 17 1 31 6 30 12
-1 5 3 9 9 8 6 -1 11 4 11 12 0 8 -3 13 -6 12 -3 -1 -6 3 -6 8 0 6 3 9 6 8 3
-1 6 4 6 12 0 8 -3 13 -6 12 -3 -1 -6 3 -6 8 0 6 3 9 6 8 3 -1 6 4 6 12 0 8
-3 13 -6 12 -3 -1 -6 3 -6 8 0 6 3 9 6 8 3 -1 6 4 6 12 0 8 -3 13 -6 12 -3 -1
-6 3 -6 8 0 6 3 9 6 8 3 -1 6 4 6 12 0 8 -3 13 -6 12 -3 -1 -6 3 -6 8 0 6 3 9
6 8 3 -1 6 4 6 12 0 8 -3 13 -6 12 -3 -1 -6 3 -6 8 0 6 3 9 6 8 3 -1 6 4 6 12
0 8 -3 13 -6 12 -3 -1 -6 3 -6 8 0 6 3 9 6 8 3 -1 6 4 6 12 0 8 -3 13 -6 12
-3 -1 -6 3 -6 8 0 6 3 9 6 8 3 -1 6 4 6 12 0 8 -3 13 -6 12 -3 -1 -6 3 -6 8 0
6 3 9 6 8 3 -1 6 4 6 12 0 8 -3 13 -6 12 -3 -1 -6 3 -6 8 0 6 3 9 6 8 3 -1 6
4 6 12 0 8 -3 13 -6 12 -3 -1 -6 3 -6 8 0 6 2 9 6 8 3 -1 5 9 5 22 0 13 -2 23
-5 22 -4 -1 -6 3 -6 8 0 6 3 9 6 8 3 -1 6 4 6 12 0 8 -3 13 -6 12 -3 -1 -6 3
-6 8 0 6 3 9 6 8 3 -1 6 4 6 12 0 8 -3 13 -6 12 -3 -1 -6 3 -6 8 0 6 3 9 6 8
3 -1 6 4 6 12 0 8 -3 13 -6 12 -3 -1 -6 3 -6 8 0 6 3 9 6 8 3 -1 6 4 6 12 0 8
-3 13 -6 12 -3 -1 -6 3 -6 8 0 6 3 9 6 8 3 -1 6 4 6 12 0 8 -3 13 -6 12 -3 -1
-6 3 -6 8 0 6 3 9 6 8 3 -1 6 4 6 12 0 8 -3 13 -6 12 -3 -1 -6 3 -6 8 0 6 3 9
6 8 3 -1 6 4 6 12 0 8 -3 13 -6 12 -3 -1 -6 3 -6 8 0 6 3 9 6 8 3 -1 6 4 6 12
0 8 -3 13 -6 12 -3 -1 -6 3 -6 8 0 6 3 9 6 8 3 -1 6 4 6 12 0 8 -3 13 -6 12
-3 -1 -6 3 -6 8 0 6 3 9 6 8 3 -1 6 4 6 12 0 8 -3 13 -6 12 -3 -1 -6 3 -6 8 0
6 3 9 6 8 3 -1 6 4 6 12 0 8 -3 13 -6 12 -3 -1 -6 3 -6 8 0 6 3 9 6 8 3 -1 6
4 6 12 0 8 -3 13 -6 12 -3 -1 -6 3 -6 8 0 6 3 9 6 8 3 -1 6 4 6 11 0 12 -15
14 -37 6 -3 -1 -15 -1 -27 0 -13 1 -23 -3 -23 -8 0 -6 -8 -8 -18 -6 -15 4
-641 -92 -648 -99 -8 -8 95 -373 156 -551 16 -49 28 -91 26 -93 -2 -2 -25 60
-51 139 -26 79 -49 150 -52 158 -12 38 -234 -592 -297 -845 -92 -373 -111
-513 -111 -830 1 -242 3 -281 23 -373 66 -303 169 -502 351 -682 174 -173 351
-267 604 -322 135 -29 466 -32 622 -5 191 34 574 150 794 242 381 159 977 507
1506 881 445 315 940 706 1320 1044 77 69 167 148 200 175 98 83 378 341 580
534 377 363 1154 1158 1311 1341 21 25 65 74 98 110 133 145 155 169 231 255
43 50 90 102 104 118 51 56 2 22 -114 -80z m-6574 -1117 c-9 -10 -9 -16 -1
-21 8 -5 8 -10 0 -20 -8 -10 -8 -15 0 -20 8 -5 8 -10 0 -20 -8 -10 -8 -15 0
-20 8 -5 8 -10 0 -20 -8 -10 -8 -15 0 -20 8 -5 8 -10 0 -20 -8 -10 -8 -15 0
-20 8 -5 8 -10 0 -20 -8 -10 -8 -15 0 -20 8 -5 8 -10 0 -20 -8 -10 -8 -15 0
-20 8 -5 8 -10 0 -20 -8 -10 -8 -15 0 -20 8 -5 8 -10 0 -20 -8 -10 -8 -15 0
-20 8 -5 8 -10 0 -20 -8 -10 -8 -15 0 -20 8 -5 8 -10 0 -20 -8 -10 -8 -15 0
-20 8 -5 8 -10 0 -20 -8 -10 -8 -15 0 -20 8 -5 8 -11 0 -20 -7 -9 -6 -16 5
-25 14 -12 14 -15 0 -30 -11 -13 -13 -20 -5 -25 8 -5 8 -10 0 -20 -8 -10 -8
-15 0 -20 8 -5 8 -10 0 -20 -8 -10 -8 -15 0 -20 8 -5 8 -10 0 -20 -8 -10 -8
-15 0 -20 8 -5 8 -10 0 -20 -8 -10 -8 -15 0 -20 8 -5 8 -10 0 -20 -8 -10 -8
-15 0 -20 8 -5 8 -10 0 -20 -8 -10 -8 -15 0 -20 8 -5 8 -10 0 -20 -8 -10 -8
-15 0 -20 8 -5 8 -10 0 -20 -8 -10 -8 -15 0 -20 8 -5 8 -10 0 -20 -8 -10 -8
-15 0 -20 8 -5 8 -10 0 -20 -8 -10 -8 -15 0 -20 8 -5 8 -10 0 -20 -11 -14 -34
-14 -47 -1 -4 4 -1 6 7 4 10 -2 14 6 14 27 0 17 -5 29 -10 28 -6 -1 -11 4 -11
12 0 8 5 13 11 12 5 -1 10 12 10 28 0 17 -5 29 -10 28 -6 -1 -11 4 -11 12 0 8
5 13 11 12 5 -1 10 12 10 28 0 17 -5 29 -10 28 -6 -1 -11 4 -11 12 0 8 5 13
11 12 5 -1 10 12 10 28 0 17 -5 29 -10 28 -6 -1 -11 4 -11 12 0 8 5 13 11 12
5 -1 10 12 10 28 0 17 -5 29 -10 28 -6 -1 -11 4 -11 12 0 8 5 13 11 12 6 -1
10 22 10 58 0 36 -4 59 -10 58 -6 -1 -11 4 -11 12 0 8 5 13 11 12 5 -1 10 12
10 28 0 17 -5 29 -10 28 -6 -1 -11 4 -11 12 0 8 5 13 11 12 5 -1 10 12 10 28
0 17 -5 29 -10 28 -6 -1 -11 4 -11 12 0 8 5 13 11 12 5 -1 10 12 10 28 0 17
-5 29 -10 28 -6 -1 -11 4 -11 12 0 8 5 13 11 12 5 -1 10 12 10 28 0 17 -5 29
-10 28 -6 -1 -11 4 -11 12 0 8 5 13 11 12 5 -1 10 12 10 28 0 17 -5 29 -10 28
-6 -1 -11 4 -11 12 0 8 5 13 11 12 6 -1 10 8 10 20 -1 13 2 20 7 18 4 -3 10
-1 14 5 3 5 9 10 12 10 3 0 0 -6 -6 -14z m-517 -806 c5 -17 4 -20 -2 -10 -5 8
-13 26 -16 40 -5 17 -4 20 2 10 5 -8 13 -26 16 -40z m46 -114 c17 -43 29 -80
26 -83 -3 -4 -66 151 -66 165 0 13 10 -8 40 -82z"/>
<path d="M4635 10311 c-3 -5 -1 -12 5 -16 6 -4 7 -11 4 -17 -4 -7 -2 -8 5 -4
8 6 9 12 2 20 -6 7 -8 16 -4 19 3 4 4 7 0 7 -3 0 -8 -4 -12 -9z"/>
<path d="M4635 10231 c-3 -5 -1 -12 5 -16 6 -4 7 -11 4 -17 -4 -7 -2 -8 5 -4
8 6 9 12 2 20 -6 7 -8 16 -4 19 3 4 4 7 0 7 -3 0 -8 -4 -12 -9z"/>
<path d="M4635 10151 c-3 -5 -1 -12 5 -16 6 -4 7 -11 4 -17 -4 -7 -2 -8 5 -4
8 6 9 12 2 20 -6 7 -8 16 -4 19 3 4 4 7 0 7 -3 0 -8 -4 -12 -9z"/>
<path d="M4635 10071 c-3 -5 -1 -12 5 -16 6 -4 7 -11 4 -17 -4 -7 -2 -8 5 -4
8 6 9 12 2 20 -6 7 -8 16 -4 19 3 4 4 7 0 7 -3 0 -8 -4 -12 -9z"/>
<path d="M4635 9991 c-3 -5 -1 -12 5 -16 6 -4 7 -11 4 -17 -4 -7 -2 -8 5 -4 8
6 9 12 2 20 -6 7 -8 16 -4 19 3 4 4 7 0 7 -3 0 -8 -4 -12 -9z"/>
<path d="M4635 9911 c-3 -5 -1 -12 5 -16 6 -4 7 -11 4 -17 -4 -7 -2 -8 5 -4 8
6 9 12 2 20 -6 7 -8 16 -4 19 3 4 4 7 0 7 -3 0 -8 -4 -12 -9z"/>
<path d="M4643 9823 c0 -9 4 -10 14 -2 7 6 13 12 13 14 0 1 -6 2 -13 2 -8 0
-14 -6 -14 -14z"/>
<path d="M4635 9771 c-3 -5 -1 -12 5 -16 6 -4 7 -11 4 -17 -4 -7 -2 -8 5 -4 8
6 9 12 2 20 -6 7 -8 16 -4 19 3 4 4 7 0 7 -3 0 -8 -4 -12 -9z"/>
<path d="M4635 9691 c-3 -5 -1 -12 5 -16 6 -4 7 -11 4 -17 -4 -7 -2 -8 5 -4 8
6 9 12 2 20 -6 7 -8 16 -4 19 3 4 4 7 0 7 -3 0 -8 -4 -12 -9z"/>
<path d="M4635 9611 c-3 -5 -1 -12 5 -16 6 -4 7 -11 4 -17 -4 -7 -2 -8 5 -4 8
6 9 12 2 20 -6 7 -8 16 -4 19 3 4 4 7 0 7 -3 0 -8 -4 -12 -9z"/>
<path d="M4635 9531 c-3 -5 -1 -12 5 -16 6 -4 7 -11 4 -17 -4 -7 -2 -8 5 -4 8
6 9 12 2 20 -6 7 -8 16 -4 19 3 4 4 7 0 7 -3 0 -8 -4 -12 -9z"/>
<path d="M4635 9451 c-3 -5 -1 -12 5 -16 6 -4 7 -11 4 -17 -4 -7 -2 -8 5 -4 8
6 9 12 2 20 -6 7 -8 16 -4 19 3 4 4 7 0 7 -3 0 -8 -4 -12 -9z"/>
<path d="M4385 10765 c-82 -6 -143 -14 -135 -18 19 -8 324 -68 359 -71 14 -1
31 -5 38 -9 6 -4 14 -3 18 3 4 6 10 8 14 6 4 -3 8 1 8 9 0 8 -3 13 -6 12 -3
-1 -6 3 -6 8 0 6 3 9 6 8 3 -1 6 4 6 12 0 8 -4 13 -8 12 -4 -1 -6 3 -5 8 0 6
4 9 7 8 3 -1 6 3 6 10 0 16 -111 17 -302 2z m274 -11 c-7 -8 -7 -14 1 -19 8
-5 8 -10 0 -20 -8 -9 -8 -15 0 -20 6 -3 8 -11 4 -16 -4 -6 -13 -4 -23 5 -10 9
-20 14 -23 11 -2 -3 -5 2 -5 9 0 8 5 14 11 13 5 -1 11 8 12 21 2 29 2 29 19
29 11 0 12 -4 4 -13z"/>
<path d="M4636 10711 c-3 -5 2 -15 12 -22 15 -12 16 -12 5 2 -7 9 -10 19 -6
22 3 4 4 7 0 7 -3 0 -8 -4 -11 -9z"/>
<path d="M4482 8798 c8 -13 39 -67 68 -120 29 -54 57 -98 62 -98 5 0 6 -4 3
-10 -3 -5 3 -17 14 -27 11 -9 18 -20 15 -25 -3 -5 0 -7 8 -6 7 2 12 -2 11 -8
-1 -6 4 -11 11 -11 7 0 13 6 13 13 0 7 -4 12 -8 11 -4 -1 -7 3 -7 8 0 6 3 9 7
8 4 -1 8 4 8 12 0 8 -4 13 -8 12 -4 -1 -7 3 -7 8 0 6 3 9 7 8 4 -1 8 4 8 12 0
8 -4 13 -8 12 -4 -1 -7 3 -7 8 0 6 3 9 7 8 4 -1 8 4 8 12 0 8 -3 13 -6 12 -3
-1 -6 3 -6 8 0 6 3 9 6 8 3 -1 6 4 6 12 0 8 -3 13 -6 12 -3 -1 -6 3 -6 8 0 6
3 9 6 8 3 -1 6 4 6 12 0 8 -3 13 -6 12 -3 -1 -6 3 -6 8 0 6 3 9 6 8 3 -1 6 4
6 12 0 8 -3 13 -6 12 -3 -1 -6 3 -6 8 0 6 3 9 6 8 3 -1 6 4 6 12 0 8 -5 13
-11 12 -6 -1 -10 3 -9 8 1 6 -39 11 -99 13 l-101 3 15 -23z m176 -2 c10 -6 10
-11 2 -21 -8 -10 -8 -15 0 -20 8 -5 8 -10 0 -20 -8 -10 -8 -15 0 -20 8 -5 8
-10 0 -20 -8 -10 -8 -15 0 -20 8 -5 8 -10 0 -20 -8 -10 -8 -15 0 -20 8 -5 8
-10 0 -20 -8 -10 -8 -15 0 -20 8 -5 8 -10 0 -20 -8 -9 -8 -15 0 -20 6 -3 8
-11 4 -16 -4 -6 -14 -3 -25 7 -11 10 -16 22 -11 28 12 16 8 61 -4 59 -6 -1
-11 4 -11 12 0 8 5 13 11 12 5 -1 10 12 10 28 0 17 -5 29 -10 28 -6 -1 -11 4
-11 12 0 8 5 13 11 12 5 -1 10 12 10 28 0 19 -5 29 -13 27 -7 -1 -10 2 -7 7 7
10 25 9 44 -3z"/>
<path d="M4643 8785 c0 -8 4 -12 9 -9 5 3 6 10 3 15 -9 13 -12 11 -12 -6z"/>
<path d="M4635 8731 c-3 -5 -1 -12 5 -16 6 -4 7 -11 4 -17 -4 -7 -2 -8 5 -4 8
6 9 12 2 20 -6 7 -8 16 -4 19 3 4 4 7 0 7 -3 0 -8 -4 -12 -9z"/>
<path d="M4635 8651 c-3 -5 -1 -12 5 -16 6 -4 7 -11 4 -17 -4 -7 -2 -8 5 -4 8
6 9 12 2 20 -6 7 -8 16 -4 19 3 4 4 7 0 7 -3 0 -8 -4 -12 -9z"/>
<path d="M4636 8571 c-3 -5 2 -15 12 -22 15 -12 16 -12 5 2 -7 9 -10 19 -6 22
3 4 4 7 0 7 -3 0 -8 -4 -11 -9z"/>
<path d="M5216 2595 c-37 -34 -39 -94 -3 -132 44 -49 134 -21 150 45 20 84
-83 146 -147 87z"/>
<path d="M5622 2608 c-22 -22 -12 -28 51 -28 l62 1 -24 19 c-26 22 -71 26 -89
8z"/>
<path d="M5979 2591 c-32 -33 -37 -67 -14 -110 16 -33 33 -41 81 -41 46 0 84
39 84 87 0 46 -46 93 -90 93 -22 0 -41 -9 -61 -29z"/>
<path d="M13785 2595 c-34 -33 -35 -102 -2 -133 52 -49 147 -12 147 57 0 88
-88 134 -145 76z"/>
<path d="M14173 2602 c-74 -58 -31 -171 60 -159 46 6 73 28 80 64 16 82 -77
145 -140 95z"/>
<path d="M14565 2608 c-32 -19 -44 -40 -45 -81 0 -43 35 -87 70 -87 19 0 20 6
20 90 0 95 -4 101 -45 78z"/>
<path d="M14670 2531 c0 -45 3 -62 10 -55 19 19 23 78 6 99 -14 19 -15 16 -16
-44z"/>
<path d="M5576 2513 c-4 -10 1 -28 12 -43 27 -36 99 -41 129 -8 11 13 24 33
28 46 6 22 5 22 -78 22 -71 0 -86 -3 -91 -17z"/>
</g>
</svg>
